<svg width="20" height="18" viewBox="0 0 20 18" fill="none" xmlns="http://www.w3.org/2000/svg">
<path opacity="0.4" d="M20 12.9405C20 15.7305 17.76 17.9905 14.97 18.0005H14.96H5.05C2.27 18.0005 0 15.7505 0 12.9605V12.9505C0 12.9505 0.006 8.52449 0.014 6.29849C0.015 5.88049 0.495 5.64649 0.822 5.90649C3.198 7.79149 7.447 11.2285 7.5 11.2735C8.21 11.8425 9.11 12.1635 10.03 12.1635C10.95 12.1635 11.85 11.8425 12.56 11.2625C12.613 11.2275 16.767 7.89349 19.179 5.97749C19.507 5.71649 19.989 5.95049 19.99 6.36749C20 8.57649 20 12.9405 20 12.9405Z" fill="white"/>
<path d="M19.4759 2.674C18.6099 1.042 16.9059 0 15.0299 0H5.04988C3.17388 0 1.46988 1.042 0.603884 2.674C0.409884 3.039 0.501884 3.494 0.824884 3.752L8.24988 9.691C8.76988 10.111 9.39988 10.32 10.0299 10.32C10.0339 10.32 10.0369 10.32 10.0399 10.32C10.0429 10.32 10.0469 10.32 10.0499 10.32C10.6799 10.32 11.3099 10.111 11.8299 9.691L19.2549 3.752C19.5779 3.494 19.6699 3.039 19.4759 2.674Z" fill="white"/>
</svg>
